<svg xmlns="http://www.w3.org/2000/svg" viewBox="0 0 88.61 35.07"><title>bear-fly</title><g id="8f54e12a-769f-4e87-9309-2de3c9756b72" data-name="bear"><path d="M34.52,18.28A13.53,13.53,0,0,1,41.13,20c3.26,1.87,9.24,4.17,17.65,1.8s16.62-2.43,20.86,1.6,6.46,5.49,9,5.49c0,0-5,1.49-7.44-.9s-6.09-4.44-8-3.34a6.37,6.37,0,0,1-4.24.7A5,5,0,0,0,64.14,27c-2.23,2.78-4.25,4.52-6.26,4.31-2.57-.28-4.39.61-5.28,2S49.05,35.3,46.83,35c-1.39-.21-4.24-1.46-6.95-1.39s-4.31,1-5.22.7l-3-5.43L31.9,24l.89-5.65Z" style="fill:#c81d1d"/><path d="M54.33,25.51c3.07-1.24,9.81-5.11,15.1-5.32a40.12,40.12,0,0,0-10.65,1.63c-8.41,2.37-14.39.07-17.65-1.8a13.53,13.53,0,0,0-6.61-1.74h-.06c.22.07,5.68,1.87,8,5C45.3,27.22,50,27.24,54.33,25.51Z" style="fill:#af1e25"/><path d="M37.16,20.71s6.12,5.14,7.1,6.88S50.72,32,52,32.25l-1.95.9a4.87,4.87,0,0,1-2.57-.9c-.69-.76-4.24-4.45-4.24-4.45A33.87,33.87,0,0,0,37.16,20.71Z" style="fill:#af1e25"/><path d="M40,24.88s1.67,3.82,2,4.52,1.88,3.68,1.88,3.68l1.39.49s-1.74-2.64-1.95-2.92S40,24.88,40,24.88Z" style="fill:#af1e25"/><path d="M36.05,20.71A20.76,20.76,0,0,1,36.47,25c-.07,2,.07,6.88.63,8l-1.26-.2-1.25-3.13.14-1.95S36.33,23.77,36.05,20.71Z" style="fill:#af1e25"/><path d="M54.47,26.9a46.16,46.16,0,0,0,6.47-.49c1.67-.42,2.15.14,2.15.14l-1.46,1.6-2.22-.63Z" style="fill:#af1e25"/><path d="M81.58,27A13,13,0,0,0,74.84,22a16.27,16.27,0,0,0-8.76-.42S72,21.27,76,23.21A31.59,31.59,0,0,1,81.58,27Z" style="fill:#af1e25"/><path d="M36.34,24.28a8.08,8.08,0,0,1,3.29-.61c1.42.17,3,1.92-.38,2.45" style="fill:#885224"/><path d="M16.72,34.76S38,36.08,49.44,31.24c2.47-.85,3.23-3.19,1.57-3.91s-2.6-.27-4.68,0S42.07,25,36.58,24.77" style="fill:#885224"/><path d="M9,28.74S3,27,1.34,27.21C0,27.34-2,30.94,5,32.41a41.8,41.8,0,0,0,6.06.74" style="fill:#885224"/><path d="M36.52,21.91l.06,2.86c-.33,5.05-6,7.53-6,7.53C22.42,36.09,15.13,34.91,12,33.64S9,28.74,9,28.74l.59-6.58,8.48-4.64Z" style="fill:#e4b459"/><path d="M22.85,21.36a2.54,2.54,0,0,0-2.93.07,39.42,39.42,0,0,0-4,2.86,3.34,3.34,0,0,1-1.23.71h0a52.59,52.59,0,0,1,2.63,8.75,25.79,25.79,0,0,0,6-.53C24.65,27,24.19,22.4,22.85,21.36Z" style="fill:#c81d1d"/><path d="M20,7.33A5,5,0,1,0,13.07,9.5s-2.75.93-3,3-.92,10.27-.92,10.27l9.07-3.9L37,23,36.8,13.9a4.6,4.6,0,0,0-1.29-3,5.72,5.72,0,1,0-8-3.84,5.48,5.48,0,0,0,.22.72,20,20,0,0,0-10.23,0" style="fill:#885224"/><path d="M35.25,5.3a2.76,2.76,0,1,1-3.32-2A2.76,2.76,0,0,1,35.25,5.3Z" style="fill:#fff"/><path d="M16.65,5a2.35,2.35,0,1,1-2.83-1.74A2.34,2.34,0,0,1,16.65,5Z" style="fill:#fff"/><path d="M20.41,12.19s1,2,2.53.9L26.1,10.8" style="fill:none"/><path d="M22,13.94l6.91-1.78s1.15,4.28-2.72,5C22.71,17.8,22,13.94,22,13.94Z" style="fill:#fff"/><path d="M16.08,14.73l-5.86-.62s-.08,3.61,2.22,3.87C15.62,18.33,16.08,14.73,16.08,14.73Z" style="fill:#fff"/><path d="M34,29.87s-6.41-.65-7.73,1.47,5.79,3.36,10.9,1.72" style="fill:#885224"/></g></svg>